<?xml version="1.0" encoding="UTF-8" standalone="no"?>
<svg width="96px" height="29px" viewBox="0 0 96 29" version="1.1" xmlns="http://www.w3.org/2000/svg" xmlns:xlink="http://www.w3.org/1999/xlink" xmlns:sketch="http://www.bohemiancoding.com/sketch/ns">
    <!-- Generator: Sketch 3.2.2 (9983) - http://www.bohemiancoding.com/sketch -->
    <title>Logo</title>
    <desc>Created with Sketch.</desc>
    <defs></defs>
    <g id="[Flow]-Browse-Jobs" stroke="none" stroke-width="1" fill="none" fill-rule="evenodd" sketch:type="MSPage">
        <g id="Preferences" sketch:type="MSArtboardGroup" transform="translate(-99.000000, -26.000000)" fill="#FFFFFF">
            <g id="Masthead" sketch:type="MSLayerGroup">
                <g id="Home" transform="translate(99.000000, 22.000000)" sketch:type="MSShapeGroup">
                    <g id="Logo" transform="translate(0.000000, 4.000000)">
                        <g id="Imported-Layers" transform="translate(20.943721, 2.904628)" stroke="#FFFFFF" stroke-width="2" stroke-linecap="round">
                            <path d="M4.1045952,3.93971306 C3.07886809,5.44975686 0.870056059,5.91044819 0.543734888,5.72974864 C0.217413717,5.5490491 -0.328730503,3.56104576 0.69699661,2.05100196 C1.72272372,0.540958166 3.96805914,0.100310303 4.25785692,0.260966382 C4.54799604,0.421930822 5.13032231,2.42966927 4.1045952,3.93971306 Z" id="Stroke-2"></path>
                        </g>
                        <path d="M5.38656827,28.1968385 L5.38656827,0.429509116 L0.326702707,0.429509116 L0.326702707,28.1968385 L5.38656827,28.1968385 Z M27.0371708,20.2089766 C27.0371708,15.2641097 23.3940676,11.6505532 17.7270181,11.6505532 C12.0599687,11.6505532 8.41686551,15.2641097 8.41686551,20.2089766 C8.41686551,25.1538435 12.0599687,28.7674001 17.7270181,28.7674001 C23.3940676,28.7674001 27.0371708,25.1538435 27.0371708,20.2089766 L27.0371708,20.2089766 Z M21.9773052,20.2089766 C21.9773052,22.8715973 20.1557536,24.7734691 17.7270181,24.7734691 C15.2982827,24.7734691 13.4767311,22.8715973 13.4767311,20.1709392 C13.4767311,17.546356 15.2982827,15.6444841 17.7270181,15.6444841 C20.1557536,15.6444841 21.9773052,17.546356 21.9773052,20.2089766 L21.9773052,20.2089766 Z M46.0566432,25.5342179 L42.8183292,22.4912229 C41.6039615,24.0127204 40.3895938,24.7734691 38.3656475,24.7734691 C36.1393067,24.7734691 34.3177551,22.8715973 34.3177551,20.2089766 C34.3177551,17.546356 35.977391,15.6444841 38.3656475,15.6444841 C40.5919884,15.6444841 41.6039615,16.4052329 42.8183292,17.546356 L45.4494593,14.503361 C43.6279077,12.6014891 41.6039615,11.6505532 38.3656475,11.6505532 C32.6985981,11.6505532 29.0554949,15.2641097 29.0554949,20.2089766 C29.0554949,25.1538435 32.6985981,28.7674001 38.3656475,28.7674001 C41.6039615,28.7674001 43.6279077,27.8164641 46.0566432,25.5342179 L46.0566432,25.5342179 Z M64.873721,28.1968385 L64.873721,12.2211147 L59.8138554,12.2211147 L59.8138554,20.9697254 C59.8138554,22.8715973 58.3970931,24.3930948 56.3731468,24.3930948 C53.9444114,24.3930948 53.1348329,23.2519716 53.1348329,20.9697254 L53.1348329,12.2211147 L48.0749673,12.2211147 L48.0749673,22.4912229 C48.0749673,26.675341 50.3013082,28.7674001 54.2682428,28.7674001 C56.3731468,28.7674001 58.3970931,28.1968385 59.7328976,26.675341 L59.8138554,26.675341 L59.8138554,28.1968385 L64.873721,28.1968385 Z M95.8344761,28.1968385 L95.8344761,17.1659816 C95.8344761,14.1229866 93.6081353,11.6505532 89.9650321,11.6505532 C87.5362966,11.6505532 85.9171396,12.2211147 83.8931934,14.1229866 C83.0836149,12.6014891 81.6263736,11.6505532 79.4405117,11.6505532 C77.2546498,11.6505532 75.3926193,12.2211147 74.0568148,13.7426122 L73.9758569,13.7426122 L73.9758569,12.2211147 L68.9159913,12.2211147 L68.9159913,28.1968385 L73.9758569,28.1968385 L73.9758569,19.0678535 C73.9758569,17.546356 75.3926193,16.0248585 77.0117762,16.0248585 C79.0357225,16.0248585 79.845301,17.1659816 79.845301,19.0678535 L79.845301,28.1968385 L84.9051665,28.1968385 L84.9051665,19.0678535 C84.9051665,17.3561688 85.9171396,16.0248585 87.9410859,16.0248585 C89.9650321,16.0248585 90.7746106,17.1659816 90.7746106,19.0678535 L90.7746106,28.1968385 L95.8344761,28.1968385 Z" id="locum"></path>
                    </g>
                </g>
            </g>
        </g>
    </g>
</svg>